<?xml version="1.0" encoding="UTF-8"?>
<svg xmlns="http://www.w3.org/2000/svg" xmlns:xlink="http://www.w3.org/1999/xlink" width="23px" height="23px" viewBox="0 0 23 23" version="1.1">
<g id="surface1">
<path style=" stroke:none;fill-rule:nonzero;fill:rgb(0%,0%,0%);fill-opacity:1;" d="M 0.820312 5.929688 L 22.179688 5.929688 C 22.632812 5.929688 23 5.609375 23 5.210938 L 23 3.414062 C 23 3.015625 22.632812 2.695312 22.179688 2.695312 L 0.820312 2.695312 C 0.367188 2.695312 0 3.015625 0 3.414062 L 0 5.210938 C 0 5.609375 0.367188 5.929688 0.820312 5.929688 Z M 0.820312 13.117188 L 22.179688 13.117188 C 22.632812 13.117188 23 12.796875 23 12.398438 L 23 10.601562 C 23 10.203125 22.632812 9.882812 22.179688 9.882812 L 0.820312 9.882812 C 0.367188 9.882812 0 10.203125 0 10.601562 L 0 12.398438 C 0 12.796875 0.367188 13.117188 0.820312 13.117188 Z M 0.820312 20.304688 L 22.179688 20.304688 C 22.632812 20.304688 23 19.984375 23 19.585938 L 23 17.789062 C 23 17.390625 22.632812 17.070312 22.179688 17.070312 L 0.820312 17.070312 C 0.367188 17.070312 0 17.390625 0 17.789062 L 0 19.585938 C 0 19.984375 0.367188 20.304688 0.820312 20.304688 Z M 0.820312 20.304688 "/>
</g>
</svg>
